<?xml version="1.0" encoding="UTF-8" standalone="no"?>
<!-- Created with Inkscape (http://www.inkscape.org/) -->

<svg
   width="1mm"
   height="1mm"
   viewBox="0 0 1 1"
   version="1.1"
   id="svg1"
   xml:space="preserve"
   inkscape:version="1.3.2 (091e20ef0f, 2023-11-25)"
   sodipodi:docname="blue.svg"
   inkscape:export-filename="bronze.png"
   inkscape:export-xdpi="2540"
   inkscape:export-ydpi="2540"
   xmlns:inkscape="http://www.inkscape.org/namespaces/inkscape"
   xmlns:sodipodi="http://sodipodi.sourceforge.net/DTD/sodipodi-0.dtd"
   xmlns="http://www.w3.org/2000/svg"
   xmlns:svg="http://www.w3.org/2000/svg"><sodipodi:namedview
     id="namedview1"
     pagecolor="#ffffff"
     bordercolor="#666666"
     borderopacity="1.0"
     inkscape:showpageshadow="2"
     inkscape:pageopacity="0.0"
     inkscape:pagecheckerboard="0"
     inkscape:deskcolor="#d1d1d1"
     inkscape:document-units="mm"
     inkscape:zoom="114.88966"
     inkscape:cx="1.8539527"
     inkscape:cy="1.5275526"
     inkscape:window-width="2560"
     inkscape:window-height="1371"
     inkscape:window-x="0"
     inkscape:window-y="0"
     inkscape:window-maximized="1"
     inkscape:current-layer="svg1" /><defs
     id="defs1" /><path
     d="m 0.58305252,0.25526028 c 0,0.0353412 -0.030924,0.0644982 -0.0693573,0.0644982 -0.0379921,0 -0.0689161,-0.029157 -0.0689161,-0.0644982 0,-0.0357831 0.030924,-0.0644982 0.0689161,-0.0644982 0.0384341,0 0.0693573,0.0287151 0.0693573,0.0644982 z m -0.13827341,0.0901207 h 0.0278312 0.013695 l 0.23457888,0.16743017 v 0.0388752 H 0.69349454 L 0.55522113,0.45184706 v 0.0998396 l 0.0552211,0.10293198 0.0552211,0.12899628 -0.02739,0.025623 H 0.61044218 L 0.55522113,0.68024121 0.44477911,0.52562235 V 0.40590321 l -0.0689161,0.0556631 -0.0552211,0.0901207 H 0.27911581 V 0.5256229 l 0.0415261,-0.0773093 z m 0.023414,0.26815327 -0.0640562,0.19570327 h -0.0282731 l -0.0278311,-0.025623 0.0777512,-0.21779165 z"
     id="pedestrian"
     style="stroke-width:0.0441767;image-rendering:auto"><desc
       id="desc4">From the CC0 icon set Temaki</desc><title
       id="title4">Pedestrian Icon</title></path><path
     style="display:inline;fill:#7bc2f6;fill-opacity:1;stroke:#000000;stroke-width:0.109071;stroke-dasharray:none;paint-order:stroke markers fill"
     d="M 0.45461499,0.94176172 C 0.36472354,0.93220823 0.28683439,0.89964769 0.21764318,0.84269882 0.14812648,0.78548202 0.1012468,0.71539633 0.07468825,0.62897941 0.05818745,0.57528862 0.05446143,0.55136767 0.05453634,0.49960433 0.05461226,0.44715863 0.05835527,0.42333579 0.07490394,0.36996972 0.0937482,0.30920118 0.11769061,0.26497815 0.15807114,0.21635486 0.21492087,0.14790051 0.28248248,0.10261541 0.36732006,0.07609969 0.42082873,0.05937575 0.45078971,0.05453478 0.50078632,0.05453478 c 0.0489217,0 0.0772574,0.004532 0.1302745,0.02083656 0.11172804,0.03436003 0.20395142,0.10982742 0.2598834,0.2126654 0.0169504,0.0311654 0.0225764,0.0446862 0.0339572,0.0816074 0.0121066,0.0392759 0.0141139,0.0490458 0.0178474,0.0868665 0.003945,0.0399778 0.003938,0.0453568 -1.1586e-4,0.0869677 -0.003903,0.040055 -0.005624,0.0485121 -0.017759,0.08725 C 0.88033506,0.77291712 0.77274234,0.8803873 0.6310608,0.92420689 0.596426,0.93491909 0.5832586,0.93770729 0.552822,0.94077599 c -0.0201276,0.002032 -0.0405706,0.004134 -0.0454289,0.004672 -0.004859,5.4141e-4 -0.0286085,-0.001119 -0.0527781,-0.003686 z M 0.41209358,0.79138093 c 0.009357,-0.0287652 0.025348,-0.0778939 0.0355374,-0.1091747 l 0.0185259,-0.0568742 -0.0231409,-0.0260439 c -0.0127275,-0.0143241 -0.0239984,-0.0261647 -0.0250462,-0.0263123 -0.001665,-2.343e-4 -0.0823083,0.22157179 -0.0864605,0.23780007 -0.001329,0.005194 7.5125e-4,0.008234 0.0133321,0.0194749 l 0.0149069,0.0133202 0.0176668,5.515e-5 0.0176669,5.517e-5 z m 0.25980998,0.0378181 0.0141844,-0.0144946 -0.0320971,-0.0743638 c -0.0193662,-0.044868 -0.0438133,-0.096077 -0.0616358,-0.12910744 l -0.0295387,-0.0547438 6.8054e-4,-0.0532535 6.8053e-4,-0.0532535 0.0754826,0.0544304 0.0754826,0.0544303 h 0.0160064 0.0160063 L 0.747035,0.53552557 0.74691281,0.51220818 0.61666227,0.41956879 0.48641172,0.32692936 h -0.0245324 -0.0245324 l -0.0691845,0.057276 -0.0691845,0.057276 -0.0232462,0.0433453 c -0.0220089,0.0410388 -0.0232462,0.0441611 -0.0232462,0.0586808 v 0.0153356 l 0.0246075,-7.252e-5 0.0246075,-7.252e-5 0.0311647,-0.0509738 0.0311645,-0.0509737 0.0357172,-0.0283344 0.0357172,-0.0283344 6.7465e-4,0.0642202 6.7467e-4,0.0642202 0.061715,0.0862432 0.0617148,0.0862432 0.0306542,0.0713424 0.0306542,0.0713422 h 0.018085 0.0180852 z M 0.55229958,0.29122329 c 0.0279158,-0.0133055 0.0427371,-0.0387768 0.0404217,-0.0694673 -0.001386,-0.0183996 -0.007815,-0.0318656 -0.0216177,-0.0452906 -0.0158641,-0.015431 -0.0343826,-0.0217239 -0.0599247,-0.0203647 -0.0242248,0.00129 -0.040828,0.008706 -0.0552988,0.024705 -0.0132865,0.0146889 -0.0174909,0.0257989 -0.0176173,0.0465523 -1.3305e-4,0.0218277 0.006367,0.0366101 0.0227173,0.0516631 0.0250283,0.0230426 0.059041,0.0275872 0.0913195,0.0122022 z"
     id="circle"
     clip-path="none"
     inkscape:label="circle"><title
       id="title5">Circle with Fill</title></path></svg>
